<svg width="512" height="512" viewBox="0 0 512 512" xmlns="http://www.w3.org/2000/svg" role="img" aria-label="PureBite Halal icon">
  <defs>
    <linearGradient id="g" x1="0" y1="0" x2="1" y2="1">
      <stop offset="0%" stop-color="#10b981"/>
      <stop offset="100%" stop-color="#059669"/>
    </linearGradient>
  </defs>
  <rect width="512" height="512" rx="120" fill="url(#g)"/>
  <circle cx="256" cy="256" r="170" fill="#ffffff" opacity="0.1"/>
  <g transform="translate(128 120)">
    <path d="M128 32c-60 14-104 67-104 131 0 67 52 121 116 125 61 4 124-36 140-105 10-44-6-94-39-125-37-36-82-43-113-26z" fill="#ffffff"/>
    <path d="M36 192c60-20 116-52 164-96" stroke="#10b981" stroke-width="12" stroke-linecap="round"/>
    <g transform="translate(44 210)">
      <rect x="0" y="0" width="12" height="60" fill="#10b981"/>
      <rect x="22" y="0" width="6" height="60" fill="#10b981"/>
      <rect x="36" y="0" width="14" height="60" fill="#10b981"/>
      <rect x="58" y="0" width="6" height="60" fill="#10b981"/>
      <rect x="70" y="0" width="10" height="60" fill="#10b981"/>
      <rect x="86" y="0" width="6" height="60" fill="#10b981"/>
      <rect x="98" y="0" width="14" height="60" fill="#10b981"/>
      <rect x="120" y="0" width="6" height="60" fill="#10b981"/>
      <rect x="132" y="0" width="10" height="60" fill="#10b981"/>
      <rect x="148" y="0" width="6" height="60" fill="#10b981"/>
      <rect x="160" y="0" width="14" height="60" fill="#10b981"/>
    </g>
  </g>
</svg>
