<svg width="1200" height="400" viewBox="0 0 1200 400" xmlns="http://www.w3.org/2000/svg" role="img" aria-label="PureBite Halal logo">
  <defs>
    <linearGradient id="g" x1="0" y1="0" x2="1" y2="1">
      <stop offset="0%" stop-color="#10b981"/>
      <stop offset="100%" stop-color="#059669"/>
    </linearGradient>
  </defs>
  <rect width="1200" height="400" rx="48" fill="#ffffff"/>
  <g transform="translate(60 40)">
    <rect width="320" height="320" rx="72" fill="url(#g)"/>
    <circle cx="160" cy="160" r="110" fill="#ffffff" opacity="0.1"/>
    <g transform="translate(56 54)">
      <path d="M104 24C55 36 20 79 20 130c0 54 42 98 93 101 49 3 100-29 113-84 8-35-5-74-31-98-30-29-66-34-91-25z" fill="#ffffff"/>
      <path d="M30 150c50-17 96-43 136-80" stroke="#10b981" stroke-width="10" stroke-linecap="round"/>
      <g transform="translate(40 170)">
        <rect x="0" y="0" width="10" height="52" fill="#10b981"/>
        <rect x="18" y="0" width="5" height="52" fill="#10b981"/>
        <rect x="30" y="0" width="12" height="52" fill="#10b981"/>
        <rect x="49" y="0" width="5" height="52" fill="#10b981"/>
        <rect x="60" y="0" width="9" height="52" fill="#10b981"/>
        <rect x="74" y="0" width="5" height="52" fill="#10b981"/>
        <rect x="85" y="0" width="12" height="52" fill="#10b981"/>
        <rect x="104" y="0" width="5" height="52" fill="#10b981"/>
        <rect x="115" y="0" width="9" height="52" fill="#10b981"/>
      </g>
    </g>
  </g>
  <g transform="translate(430 120)">
    <text x="0" y="0" font-family="'Segoe UI', 'Inter', system-ui, sans-serif" font-size="72" font-weight="700" fill="#065f46">PureBite</text>
    <text x="0" y="90" font-family="'Segoe UI', 'Inter', system-ui, sans-serif" font-size="44" font-weight="600" fill="#0f766e">Halal</text>
    <text x="0" y="150" font-family="'Segoe UI', 'Inter', system-ui, sans-serif" font-size="22" fill="#6b7280">Scan • Verify • Eat with Confidence</text>
  </g>
</svg>
